<?xml version="1.0" encoding="UTF-8"?>
<svg xmlns="http://www.w3.org/2000/svg" xmlns:xlink="http://www.w3.org/1999/xlink" width="2000" height="2000" viewBox="0 0 2000 2000">

<path fill-rule="nonzero" fill="rgb(0%, 0%, 0%)" fill-opacity="1" d="M 717.179688 1103.847656 C 720.699219 1102.777344 724.183594 1101.347656 727.453125 1099.660156 C 726.28125 1102.820312 725.15625 1105.988281 724.113281 1109.175781 C 721.644531 1107.546875 719.328125 1105.777344 717.179688 1103.847656 Z M 698.128906 1084.160156 C 704.011719 1082.722656 709.628906 1080.402344 715.253906 1078.136719 C 720.734375 1075.921875 726.378906 1074.117188 731.886719 1071.976562 C 731.296875 1074.976562 730.753906 1077.980469 730.257812 1080.988281 C 721.960938 1084.503906 713.734375 1088.199219 705.4375 1091.730469 C 703.078125 1089.144531 700.675781 1086.589844 698.128906 1084.160156 Z M 686.554688 1074.378906 C 694.363281 1071.933594 701.941406 1068.722656 709.691406 1066.105469 C 717.867188 1063.34375 726.695312 1058.992188 735.210938 1056.785156 C 734.5625 1059.46875 733.949219 1062.148438 733.359375 1064.835938 C 720.867188 1070.675781 707.785156 1076.660156 694.777344 1081.132812 C 694.679688 1081.050781 694.589844 1080.960938 694.488281 1080.871094 C 691.863281 1078.675781 689.210938 1076.527344 686.554688 1074.378906 Z M 656.875 1050.199219 C 662.113281 1047.726562 667.347656 1045.238281 672.542969 1042.691406 C 697.628906 1030.378906 722.460938 1017.546875 749.007812 1008.679688 C 748.25 1011.058594 747.496094 1013.453125 746.746094 1015.863281 C 746.5 1015.90625 746.253906 1015.96875 746.007812 1016.082031 C 732.539062 1022.097656 719.765625 1029.410156 706.351562 1035.542969 C 692.152344 1042.023438 678.097656 1048.484375 664.992188 1056.996094 C 662.261719 1054.761719 659.5625 1052.488281 656.875 1050.199219 Z M 595.179688 1067.355469 C 570.066406 1079.210938 545.089844 1091.414062 519.851562 1102.972656 C 500.46875 1111.851562 480.699219 1120.492188 463.5 1133.144531 C 453.539062 1116.078125 449.039062 1096.640625 442.46875 1078.140625 C 435.15625 1057.542969 427.507812 1037.429688 418.027344 1017.695312 C 398.417969 976.878906 375.476562 937.25 353.078125 897.910156 C 329.363281 856.238281 304.128906 815.46875 279.226562 774.519531 C 257.351562 738.550781 231.0625 705.578125 207.628906 670.628906 C 248.332031 700.101562 291.292969 727.03125 332.992188 754.980469 C 378.902344 785.769531 425.476562 815.5 473.71875 842.53125 C 520.855469 868.941406 568.652344 893.410156 614.316406 922.441406 C 638.195312 937.628906 661.585938 953.578125 684.65625 969.960938 C 700.898438 981.480469 718.085938 993.328125 736.449219 1001.65625 C 715.382812 1009.535156 695.199219 1019.523438 675.054688 1029.570312 C 648.699219 1042.726562 621.816406 1054.777344 595.179688 1067.355469 Z M 282.757812 682.25 C 309.460938 690.78125 336.371094 698.601562 363.492188 705.660156 C 391.742188 713.011719 420.027344 720.210938 448.308594 727.429688 C 445.464844 729.339844 442.660156 731.25 439.917969 733.148438 C 437.875 734.550781 439.648438 737.910156 441.835938 736.558594 C 446.117188 733.921875 450.710938 731.558594 455.339844 729.230469 C 457.65625 729.820312 459.972656 730.421875 462.296875 731.019531 C 456.625 734.871094 450.90625 738.679688 444.679688 741.480469 C 442.734375 742.359375 444.054688 745.640625 446.066406 744.949219 C 454.648438 742.019531 463.070312 737.878906 471.195312 733.300781 C 491.996094 738.628906 512.792969 743.988281 533.558594 749.480469 C 589.953125 764.390625 645.75 781.21875 701.730469 797.589844 C 729.253906 805.628906 756.886719 813.921875 785.007812 819.601562 C 811.34375 824.921875 837.65625 830.128906 862.441406 840.820312 C 863.078125 841.109375 863.675781 841.21875 864.253906 841.289062 C 848.128906 878.019531 813.808594 902.921875 792.429688 936.609375 C 792.003906 936.289062 791.53125 936 790.96875 935.78125 C 740.207031 915.960938 690.472656 894.011719 641.191406 871.019531 C 645.8125 870.03125 650.433594 869.019531 655.078125 868.121094 C 666.859375 865.828125 679.378906 864.980469 690.796875 861.28125 C 691.890625 860.921875 691.328125 859.421875 690.261719 859.621094 C 672.535156 863.019531 654.507812 865.878906 636.628906 868.898438 C 631.59375 866.539062 626.554688 864.171875 621.535156 861.789062 C 629.304688 860.210938 636.992188 858.210938 644.832031 856.949219 C 655.871094 855.171875 666.671875 853.109375 677.269531 849.460938 C 678.035156 849.199219 677.664062 848.039062 676.882812 848.269531 C 666.339844 851.261719 655.511719 852.398438 644.699219 853.921875 C 635.160156 855.269531 625.859375 857.691406 616.410156 859.371094 C 612.804688 857.660156 609.210938 855.949219 605.617188 854.230469 C 624.304688 850.738281 642.765625 846.300781 661.425781 842.648438 C 662 842.539062 661.816406 841.578125 661.242188 841.648438 C 640.773438 844 620.601562 848.320312 600.277344 851.679688 C 595.9375 849.601562 591.605469 847.519531 587.269531 845.441406 C 607.125 843.230469 627.546875 839.261719 646.390625 833.160156 C 647.316406 832.859375 646.839844 831.570312 645.933594 831.75 C 624.675781 836.101562 603.148438 838.71875 581.878906 842.828125 C 577.226562 840.589844 572.570312 838.339844 567.921875 836.078125 C 587.433594 833.671875 607.628906 829.550781 626.199219 823.78125 C 626.675781 823.628906 626.535156 822.890625 626.035156 822.921875 C 604.757812 824.050781 583.324219 830.160156 562.253906 833.320312 C 559.144531 831.808594 556.027344 830.289062 552.914062 828.769531 C 570.921875 825.320312 588.367188 818.089844 606.714844 817.25 C 607.960938 817.191406 607.867188 815.320312 606.632812 815.328125 C 597.035156 815.441406 587.933594 817.351562 578.648438 819.609375 C 568.828125 822.019531 558.546875 823.421875 548.933594 826.441406 C 548.785156 826.480469 548.671875 826.558594 548.554688 826.648438 C 544.929688 824.878906 541.308594 823.101562 537.683594 821.320312 C 553.738281 817.980469 569.375 812.851562 585.570312 810.289062 C 586.765625 810.101562 586.730469 808.230469 585.480469 808.371094 C 567.648438 810.339844 550.027344 815.210938 532.394531 818.730469 C 528.726562 816.941406 525.066406 815.140625 521.410156 813.339844 C 535.921875 811.179688 550.429688 808.820312 564.566406 804.828125 C 566.21875 804.371094 565.394531 801.859375 563.746094 802.308594 C 548.117188 806.539062 532.121094 808.300781 516.179688 810.769531 C 513.234375 809.328125 510.292969 807.890625 507.351562 806.441406 C 519.746094 804.609375 532.023438 801.941406 544.367188 799.800781 C 545.863281 799.539062 545.78125 797.140625 544.253906 797.398438 C 530.398438 799.738281 516.578125 802.210938 502.652344 804.128906 C 500.117188 802.878906 497.574219 801.640625 495.039062 800.390625 C 505.195312 798.859375 515.371094 796.488281 525.371094 794.558594 C 526.496094 794.339844 526.136719 792.398438 525.011719 792.578125 C 513.550781 794.460938 501.628906 795.460938 490.257812 798.039062 C 486.941406 796.398438 483.628906 794.78125 480.304688 793.148438 C 489.933594 791.898438 499.445312 789.449219 509 787.890625 C 510.214844 787.679688 510.171875 785.769531 508.910156 785.929688 C 497.75 787.398438 486.683594 789.398438 475.507812 790.789062 C 474.46875 790.28125 473.429688 789.769531 472.382812 789.261719 C 470.460938 788.308594 468.535156 787.339844 466.605469 786.398438 C 472.578125 785.648438 478.527344 784.570312 484.476562 783.789062 C 485.6875 783.621094 485.640625 781.78125 484.394531 781.871094 C 476.738281 782.398438 469.074219 783.121094 461.433594 783.828125 C 459.515625 782.890625 457.601562 781.941406 455.691406 781 C 459.007812 780.460938 462.304688 779.769531 465.570312 778.789062 C 467.214844 778.289062 466.394531 775.78125 464.75 776.261719 C 460.171875 777.601562 455.492188 778.210938 450.78125 778.570312 C 448.554688 777.46875 446.328125 776.371094 444.109375 775.269531 C 444.425781 775.210938 444.742188 775.148438 445.050781 775.109375 C 447.332031 774.789062 449.621094 774.488281 451.914062 774.230469 C 453.445312 774.058594 453.367188 771.800781 451.808594 771.828125 C 447.851562 771.921875 443.054688 771.71875 439.117188 772.789062 C 397.941406 752.289062 356.964844 731.328125 316.363281 709.761719 C 282.835938 691.941406 239.800781 668.898438 207.199219 661.710938 C 232.988281 663.53125 258.375 674.449219 282.757812 682.25 Z M 759.121094 1028.308594 C 754.710938 1038.414062 749.90625 1048.519531 745.152344 1058.6875 C 747.84375 1041.425781 750.707031 1024.191406 754.023438 1006.964844 C 759.234375 1005.019531 758.207031 997.621094 753.867188 996.480469 C 753.191406 995.578125 752.246094 994.828125 750.945312 994.371094 C 728.070312 986.25 706.933594 970.980469 687.191406 957.101562 C 664.078125 940.839844 640.539062 925.210938 616.640625 910.148438 C 570.878906 881.320312 522.816406 857.230469 475.585938 831.03125 C 428.5625 804.941406 383.132812 775.980469 337.992188 746.75 C 298.347656 721.089844 259.492188 692.898438 218.570312 669.050781 C 234.792969 675.488281 247.855469 683.769531 262.785156 692.519531 C 281.671875 703.601562 303.679688 711.558594 322.871094 722.109375 C 374.570312 750.53125 426.875 777.839844 479.574219 804.339844 C 530.734375 830.070312 582.136719 855.429688 633.707031 880.339844 C 683.820312 904.550781 734.890625 929.019531 787.773438 946.621094 C 788.464844 946.839844 789.09375 946.921875 789.691406 946.921875 C 789.796875 947.070312 789.894531 947.230469 790.007812 947.378906 C 781.601562 975.140625 770.738281 1001.734375 759.121094 1028.308594 Z M 667.050781 1058.660156 C 679.25 1052.15625 692.109375 1047.066406 704.910156 1041.855469 C 718.480469 1036.335938 731.28125 1029.226562 744.53125 1023.035156 C 743.671875 1025.863281 742.820312 1028.707031 741.984375 1031.566406 C 741.851562 1031.609375 741.722656 1031.648438 741.589844 1031.71875 C 719.679688 1043.007812 697.304688 1055.519531 674.347656 1064.554688 C 671.902344 1062.601562 669.476562 1060.628906 667.050781 1058.660156 Z M 676.132812 1065.984375 C 687.578125 1062.1875 698.722656 1057.523438 709.664062 1052.445312 C 719.554688 1047.859375 730.019531 1043.960938 739.820312 1039.113281 C 738.777344 1042.851562 737.769531 1046.601562 736.800781 1050.367188 C 728.109375 1051.621094 720.074219 1056.863281 711.914062 1059.945312 C 702.382812 1063.542969 693.625 1068.613281 684.320312 1072.542969 C 681.597656 1070.355469 678.863281 1068.171875 676.132812 1065.984375 Z M 708.5 1095.058594 C 712.289062 1093.796875 716.042969 1092.390625 719.8125 1091.007812 C 722.855469 1089.898438 726.136719 1089.039062 729.214844 1087.839844 C 728.984375 1089.484375 728.761719 1091.132812 728.5625 1092.785156 C 723.628906 1095.503906 719.027344 1098.570312 713.789062 1100.652344 C 711.976562 1098.839844 710.234375 1096.957031 708.5 1095.058594 Z M 732.082031 1118.410156 C 734.132812 1118.515625 736.113281 1117.503906 736.5 1115.039062 C 737.089844 1111.332031 737.660156 1107.632812 738.234375 1103.929688 C 747.742188 1081.019531 756.558594 1057.726562 766.109375 1034.851562 C 777.640625 1007.238281 788.421875 978.871094 794.851562 949.578125 C 796.160156 949.441406 797.410156 948.71875 798.285156 947.191406 C 821.039062 907.199219 861.71875 879.410156 875.039062 833.890625 C 876.296875 829.601562 870.34375 827.21875 868.359375 830.699219 C 867.75 829.980469 866.964844 829.359375 865.945312 828.929688 C 841.140625 818.300781 814.796875 813.128906 788.449219 807.921875 C 760.300781 802.351562 732.660156 794.070312 705.101562 786.140625 C 647.5625 769.570312 590.242188 752.511719 532.261719 737.511719 C 516.347656 733.398438 500.410156 729.359375 484.46875 725.371094 C 485.292969 724.859375 486.113281 724.351562 486.929688 723.839844 C 490.46875 721.609375 487.53125 716.769531 483.816406 718.300781 C 480.664062 719.609375 477.65625 721.210938 474.714844 722.949219 C 473.015625 722.519531 471.308594 722.101562 469.609375 721.671875 C 473.183594 719.578125 476.625 717.328125 479.757812 714.738281 C 482.214844 712.710938 479.195312 709.121094 476.570312 710.449219 C 471.238281 713.140625 465.914062 716.210938 460.660156 719.449219 C 427.761719 711.289062 394.816406 703.28125 361.886719 695.25 C 334.691406 688.621094 307.769531 680.890625 280.835938 673.289062 C 255.910156 666.25 228.570312 655.078125 202.277344 658.640625 C 201.664062 658.71875 201.34375 659.121094 201.25 659.601562 C 200.277344 659.519531 199.453125 659.988281 198.925781 660.691406 C 197.46875 661.070312 196.308594 662.628906 197.164062 664.488281 C 215.527344 704.238281 246.492188 737.46875 268.78125 775 C 293.273438 816.21875 318.105469 857.269531 341.84375 898.941406 C 364.320312 938.410156 386.648438 978.371094 406.726562 1019.121094 C 417.199219 1040.375 425.234375 1062.285156 433.054688 1084.597656 C 439.636719 1103.359375 444.117188 1122.855469 454.453125 1140.070312 C 454.53125 1140.195312 454.621094 1140.285156 454.707031 1140.40625 C 452.925781 1143.292969 457.109375 1146.992188 460.191406 1144.5 C 479.105469 1129.175781 502.140625 1120.351562 524.324219 1110.945312 C 548.511719 1100.707031 572.183594 1089.007812 596.070312 1078.0625 C 614.441406 1069.652344 632.921875 1061.421875 651.234375 1052.859375 C 661.59375 1066.089844 675.0625 1076.4375 687.550781 1087.574219 C 699.292969 1098.046875 707.136719 1111.964844 721.332031 1119.65625 C 721.957031 1119.992188 722.574219 1120.175781 723.175781 1120.257812 C 725.488281 1122.5625 730.277344 1122.335938 732.082031 1118.410156 "/>
<path fill-rule="nonzero" fill="rgb(0%, 0%, 0%)" fill-opacity="1" d="M 1468.828125 1208.242188 C 1506.828125 1219.949219 1537.460938 1260.574219 1525.691406 1301.660156 C 1518.269531 1327.566406 1484.871094 1336.414062 1461.269531 1333.957031 C 1438.160156 1331.539062 1424.691406 1311.492188 1419.941406 1290.5625 C 1412.800781 1259.085938 1423.949219 1227.363281 1443.480469 1202.769531 C 1452.070312 1203.929688 1460.550781 1205.691406 1468.828125 1208.242188 Z M 961.328125 1243.453125 C 953.085938 1227.707031 950.066406 1209.195312 949.496094 1191.617188 C 948.519531 1161.679688 956.578125 1116.613281 990.445312 1107.265625 C 1006.738281 1102.769531 1025.339844 1109.984375 1038.761719 1118.867188 C 1057.898438 1131.527344 1062.289062 1155.605469 1058.140625 1176.714844 C 1049.921875 1218.46875 1012.808594 1246.894531 973.980469 1261.195312 C 969 1255.777344 964.679688 1249.851562 961.328125 1243.453125 Z M 1812.359375 1124.4375 C 1724.179688 1104.578125 1625.128906 1104.640625 1538.300781 1130.777344 C 1501.628906 1141.816406 1464.601562 1159.671875 1438.679688 1188.589844 C 1430.109375 1187.816406 1421.570312 1187.574219 1413.320312 1187.710938 C 1374.800781 1188.402344 1336.019531 1197.4375 1300.488281 1212.125 C 1280.871094 1220.242188 1262.578125 1231.578125 1243.808594 1241.460938 C 1219.261719 1254.394531 1194.25 1266.601562 1168.390625 1276.726562 C 1119.660156 1295.832031 1061.691406 1310.113281 1011.589844 1287.753906 C 1001.890625 1283.433594 992.359375 1277.628906 983.894531 1270.589844 C 1027.46875 1253.441406 1065.679688 1218.113281 1071.808594 1170.058594 C 1077.398438 1126.285156 1037.75 1089.097656 994.386719 1093.839844 C 960.699219 1097.519531 944.230469 1131.367188 938.949219 1161.1875 C 933.148438 1193.898438 936.769531 1233.335938 956.738281 1260.941406 C 957.894531 1262.546875 959.109375 1264.101562 960.347656 1265.625 C 957.539062 1266.417969 954.742188 1267.144531 951.960938 1267.785156 C 907.605469 1278.070312 856.394531 1269.957031 816.566406 1248.421875 C 775.8125 1226.375 748.023438 1187.707031 734.203125 1144.09375 C 732.8125 1139.703125 725.910156 1141.410156 727.230469 1145.886719 C 741.535156 1194.417969 771.847656 1235.511719 816.589844 1259.898438 C 861.730469 1284.511719 919.230469 1290.0625 968.460938 1275.859375 C 968.78125 1275.765625 969.105469 1275.660156 969.429688 1275.5625 C 999.484375 1304.695312 1043.941406 1315.148438 1085.070312 1311.878906 C 1138.5 1307.628906 1189.339844 1284.714844 1236.53125 1260.734375 C 1274.101562 1241.648438 1308.628906 1220.652344 1349.859375 1210.269531 C 1375.03125 1203.929688 1402.039062 1199.988281 1428.480469 1201.371094 C 1406.191406 1233.179688 1397.558594 1275.265625 1413.289062 1311.792969 C 1431.78125 1354.765625 1488.578125 1356.550781 1521.929688 1330.3125 C 1555.78125 1303.6875 1540.910156 1247.511719 1515.410156 1220.523438 C 1499.351562 1203.527344 1477.320312 1194.707031 1454.359375 1190.644531 C 1455.378906 1189.636719 1456.398438 1188.648438 1457.441406 1187.679688 C 1486.429688 1160.773438 1525.609375 1146.472656 1563.410156 1137.339844 C 1642.058594 1118.335938 1729.789062 1119.3125 1808.601562 1137.191406 C 1816.929688 1139.078125 1820.710938 1126.324219 1812.359375 1124.4375 "/>
<path fill-rule="nonzero" fill="rgb(0%, 0%, 0%)" fill-opacity="1" d="M 583.359375 1096.492188 C 562.71875 1103.796875 541.859375 1109.730469 521.71875 1118.453125 C 498.9375 1128.320312 477.242188 1141.3125 455.140625 1152.621094 C 454.902344 1152.738281 454.699219 1152.878906 454.511719 1153.019531 C 447.460938 1140.75 443.878906 1126.601562 438.238281 1113.636719 C 431.292969 1097.652344 423.144531 1082.195312 415.746094 1066.421875 C 400.46875 1033.871094 388.058594 999.808594 371.183594 968.03125 C 370.816406 967.351562 369.667969 967.789062 369.914062 968.539062 C 380.6875 1001.425781 394.851562 1033.46875 409.101562 1064.972656 C 416.328125 1080.960938 423.984375 1096.757812 431.347656 1112.679688 C 438.0625 1127.199219 441.828125 1143.335938 450.199219 1157.007812 C 451.230469 1158.695312 453.140625 1158.667969 454.390625 1157.789062 C 455.347656 1158.820312 456.871094 1159.363281 458.5 1158.609375 C 478.535156 1149.339844 497.289062 1137.617188 516.824219 1127.402344 C 538.257812 1116.191406 561.109375 1106.445312 583.6875 1097.777344 C 584.46875 1097.484375 584.171875 1096.203125 583.359375 1096.492188 "/>
<path fill-rule="nonzero" fill="rgb(0%, 0%, 0%)" fill-opacity="1" d="M 568.757812 1112.273438 C 547.289062 1117.132812 528.253906 1129.726562 508.445312 1138.859375 C 487.34375 1148.609375 466.457031 1159.246094 446.222656 1170.542969 C 445.929688 1170.703125 445.691406 1170.894531 445.472656 1171.097656 C 439.929688 1162.332031 437.734375 1152.253906 435.007812 1142.296875 C 431.925781 1131.019531 426.347656 1121.039062 421.03125 1110.691406 C 408.074219 1085.496094 396.683594 1060.234375 386.527344 1033.785156 C 386.246094 1033.046875 385.238281 1033.300781 385.347656 1034.085938 C 389.226562 1060.746094 401.699219 1086.113281 413.777344 1109.898438 C 420.027344 1122.203125 426.242188 1133.867188 430.015625 1147.210938 C 432.957031 1157.625 435.90625 1167.648438 442.445312 1176.421875 C 443.40625 1177.710938 445.027344 1177.460938 446.117188 1176.574219 C 447.078125 1177.257812 448.351562 1177.464844 449.691406 1176.722656 C 468.648438 1166.1875 488.140625 1156.023438 507.75 1146.644531 C 528.152344 1136.882812 548.015625 1122.722656 569.933594 1116.851562 C 572.882812 1116.066406 571.730469 1111.597656 568.757812 1112.273438 "/>
<path fill-rule="nonzero" fill="rgb(0%, 0%, 0%)" fill-opacity="1" d="M 718.050781 1004.613281 C 718.992188 1004.269531 719.566406 1003.609375 719.855469 1002.851562 C 720.417969 1003.082031 720.964844 1003.34375 721.535156 1003.566406 C 724.914062 1004.914062 726.507812 999.449219 723.128906 998.140625 C 692.804688 986.449219 670.324219 960.839844 641.496094 946.878906 C 639.992188 946.148438 638.742188 948.140625 640.140625 949.101562 C 664.527344 965.871094 686.726562 987.171875 713.683594 1000.082031 C 702.3125 1004.921875 691.785156 1011.578125 680.773438 1017.175781 C 664.769531 1025.316406 648.269531 1032.472656 632.203125 1040.480469 C 630.902344 1041.125 631.78125 1043.414062 633.164062 1042.875 C 647.246094 1037.355469 661.292969 1031.679688 675.078125 1025.449219 C 689.523438 1018.917969 703.175781 1010.082031 718.050781 1004.613281 "/>
<path fill-rule="nonzero" fill="rgb(0%, 0%, 0%)" fill-opacity="1" d="M 320.757812 755.628906 C 290.722656 738.171875 265.230469 713.421875 236.113281 694.449219 C 232.8125 692.300781 229.660156 697.519531 232.945312 699.648438 C 262.191406 718.570312 288.328125 741.839844 319.199219 758.191406 C 320.898438 759.078125 322.4375 756.609375 320.757812 755.628906 "/>
<path fill-rule="nonzero" fill="rgb(0%, 0%, 0%)" fill-opacity="1" d="M 211.464844 696.820312 C 202.941406 682.289062 193.449219 668.039062 186.105469 652.890625 C 185.644531 651.949219 184.160156 652.578125 184.417969 653.570312 C 188.320312 668.398438 197.761719 682.261719 205.191406 695.539062 C 213.855469 711.03125 224.566406 725.21875 232.355469 741.191406 C 233.78125 744.109375 237.988281 741.648438 236.703125 738.761719 C 230.082031 723.800781 219.699219 710.878906 211.464844 696.820312 "/>
<path fill-rule="nonzero" fill="rgb(0%, 0%, 0%)" fill-opacity="1" d="M 207.144531 704.890625 C 199.769531 694.121094 189.144531 683.011719 185.28125 670.371094 C 184.816406 668.878906 182.757812 669.46875 182.96875 670.960938 C 184.496094 681.769531 192.296875 691.230469 198.085938 700.160156 C 206.195312 712.691406 214.585938 724.980469 222.289062 737.769531 C 224.117188 740.800781 228.941406 738.089844 227.074219 735.089844 C 220.699219 724.828125 213.960938 714.859375 207.144531 704.890625 "/>
<path fill-rule="nonzero" fill="rgb(0%, 0%, 0%)" fill-opacity="1" d="M 809.628906 898.289062 C 801.503906 907.839844 793.160156 918.71875 786.882812 929.53125 C 785.589844 931.761719 788.988281 933.820312 790.289062 931.601562 C 797.832031 918.679688 807.972656 905.890625 817.671875 894.578125 C 826.121094 884.738281 836.644531 876.140625 843.085938 864.789062 C 843.796875 863.539062 841.984375 862.449219 841.195312 863.640625 C 832.671875 876.449219 819.617188 886.539062 809.628906 898.289062 "/>
<path fill-rule="nonzero" fill="rgb(0%, 0%, 0%)" fill-opacity="1" d="M 778.839844 925.410156 C 777.515625 927.570312 780.828125 929.570312 782.183594 927.449219 C 795.476562 906.699219 813.226562 888.511719 829.902344 870.511719 C 830.851562 869.480469 829.398438 867.949219 828.386719 868.949219 C 810.683594 886.261719 791.902344 904.160156 778.839844 925.410156 "/>
<path fill-rule="nonzero" fill="rgb(0%, 0%, 0%)" fill-opacity="1" d="M 771.644531 923.378906 C 770.066406 925.558594 773.65625 927.730469 775.210938 925.550781 C 787.230469 908.671875 799.65625 888.601562 816.125 875.621094 C 816.566406 875.28125 816.113281 874.601562 815.621094 874.71875 C 807.859375 876.679688 800.289062 887.519531 795.128906 893.21875 C 786.496094 902.769531 779.148438 912.960938 771.644531 923.378906 "/>
<path fill-rule="nonzero" fill="rgb(0%, 0%, 0%)" fill-opacity="1" d="M 778.382812 899.128906 C 773.027344 904.851562 766.21875 911.050781 762.746094 918.160156 C 761.683594 920.328125 764.796875 922.308594 765.988281 920.140625 C 769.699219 913.378906 775.835938 907.511719 780.855469 901.691406 C 787.105469 894.441406 794.003906 887.71875 800.878906 881.070312 C 802.042969 879.929688 800.34375 878.199219 799.128906 879.261719 C 791.902344 885.578125 784.949219 892.109375 778.382812 899.128906 "/>
<path fill-rule="nonzero" fill="rgb(0%, 0%, 0%)" fill-opacity="1" d="M 760.1875 918.699219 C 766.292969 906.410156 778.441406 897.28125 784.066406 884.621094 C 784.152344 884.421875 784.023438 884.230469 783.796875 884.261719 C 780.632812 884.75 775.984375 892.589844 774.199219 894.738281 C 768.496094 901.570312 760.8125 908.640625 757.128906 916.839844 C 756.199219 918.898438 759.148438 920.789062 760.1875 918.699219 "/>
<path fill-rule="nonzero" fill="rgb(0%, 0%, 0%)" fill-opacity="1" d="M 752.566406 915.058594 C 755.335938 911.96875 757.15625 908.199219 759.632812 904.878906 C 762.949219 900.449219 765.949219 895.800781 769.359375 891.441406 C 770.230469 890.339844 768.355469 888.839844 767.441406 889.910156 C 761.269531 897.160156 756.113281 905.179688 750.179688 912.589844 C 748.832031 914.28125 751.058594 916.75 752.566406 915.058594 "/>
<path fill-rule="nonzero" fill="rgb(0%, 0%, 0%)" fill-opacity="1" d="M 844.632812 897.199219 C 836.492188 905.589844 829.179688 914.941406 821.273438 923.578125 C 813.730469 931.828125 805.519531 940.910156 800.304688 950.820312 C 800.070312 951.25 800.050781 951.671875 800.121094 952.058594 C 796.917969 962.328125 793.898438 972.640625 790.886719 982.96875 C 788.453125 991.339844 785.125 999.390625 784.363281 1008.132812 C 784.289062 1008.894531 785.554688 1009.09375 785.695312 1008.335938 C 789.214844 989.820312 797.65625 970.699219 804.152344 953.011719 C 804.3125 952.589844 804.285156 952.210938 804.191406 951.878906 C 815.058594 932.089844 833.644531 917.210938 845.664062 898.03125 C 846.066406 897.390625 845.15625 896.660156 844.632812 897.199219 "/>
</svg>
